<svg width="12" height="15" viewBox="0 0 12 15" fill="none" xmlns="http://www.w3.org/2000/svg">
<path fill-rule="evenodd" clip-rule="evenodd" d="M4.93341 3.98352L6.00179 3.16452L7.06666 3.98352L6.65979 2.65702L7.72641 1.83627H6.40866L6.00179 0.509766L5.59316 1.83627H4.27454L5.34204 2.65702L4.93341 3.98352Z" fill="white"/>
<path fill-rule="evenodd" clip-rule="evenodd" d="M8.61106 10.9815L10.3033 10.9955L7.76406 7.46842H9.50006L5.98693 3.98242L2.52718 7.49642H4.30431L1.63818 10.9553H3.40218L0.763184 14.4693L11.2431 14.4544L8.61106 10.9815ZM4.26406 13.6345H3.34793V12.7053H4.26406V13.6345ZM5.13906 10.1345H4.22293V9.2053H5.13906V10.1345ZM6.02718 6.63455H5.09793V5.7053H6.02718V6.63455ZM6.84793 9.20442H7.76406V10.1337H6.84793V9.20442ZM7.72293 13.6345V12.7053H8.63906V13.6345H7.72293Z" fill="white"/>
<path fill-rule="evenodd" clip-rule="evenodd" d="M9.5 7.49609H10.3479V8.35709H9.5V7.49609Z" fill="white"/>
<path fill-rule="evenodd" clip-rule="evenodd" d="M10.375 10.9961H11.2229V11.8571H10.375V10.9961Z" fill="white"/>
<path fill-rule="evenodd" clip-rule="evenodd" d="M0.75 10.9961H1.59788V11.8571H0.75V10.9961Z" fill="white"/>
<path fill-rule="evenodd" clip-rule="evenodd" d="M1.625 7.49609H2.47288V8.35709H1.625V7.49609Z" fill="white"/>
</svg>
