<?xml version="1.0" standalone="no"?>
<!DOCTYPE svg PUBLIC "-//W3C//DTD SVG 20010904//EN"
 "http://www.w3.org/TR/2001/REC-SVG-20010904/DTD/svg10.dtd">
<svg version="1.0" xmlns="http://www.w3.org/2000/svg"
 width="924.000000pt" height="924.000000pt" viewBox="0 0 924.000000 924.000000"
 preserveAspectRatio="xMidYMid meet">
<metadata>
Created by potrace 1.14, written by Peter Selinger 2001-2017
</metadata>
<g transform="translate(0.000000,924.000000) scale(0.100000,-0.100000)"
fill="#000000" stroke="none">
<path d="M1041 8635 c-10 -16 -40 -70 -66 -120 -26 -49 -60 -112 -75 -140 -36
-66 -90 -167 -156 -291 l-54 -102 121 -363 c66 -200 122 -368 123 -374 2 -5 6
-17 9 -25 7 -20 31 -94 32 -100 0 -3 3 -9 6 -15 4 -5 10 -23 14 -40 12 -44 12
-45 15 -50 1 -3 3 -8 5 -12 1 -5 5 -15 8 -23 5 -13 58 -174 62 -190 1 -3 4
-12 8 -20 10 -26 111 -335 112 -342 0 -3 3 -9 6 -13 4 -3 -7 -34 -23 -68 -17
-34 -63 -129 -103 -212 -40 -82 -112 -231 -160 -329 -48 -99 -91 -189 -96
-200 -5 -12 -13 -28 -19 -36 -7 -12 -129 -263 -136 -280 -1 -3 -5 -15 -9 -27
-4 -13 -11 -23 -16 -23 -5 0 -9 -5 -9 -10 0 -6 -17 -45 -37 -88 -20 -42 -36
-80 -35 -84 1 -5 -3 -8 -8 -8 -6 0 -10 -4 -10 -9 0 -8 -119 -258 -258 -541
-26 -52 -47 -97 -47 -100 -1 -3 -16 -34 -35 -70 -19 -36 -34 -67 -35 -70 0 -3
-40 -85 -88 -182 l-87 -178 46 -87 c26 -49 68 -128 94 -178 26 -49 76 -144
110 -210 34 -66 79 -151 100 -190 20 -38 68 -128 105 -200 37 -71 72 -134 76
-140 5 -5 9 -17 9 -27 0 -10 4 -18 9 -18 5 0 14 -12 20 -27 5 -16 34 -73 64
-128 29 -55 91 -172 137 -260 46 -88 101 -191 121 -230 21 -38 67 -126 102
-195 36 -69 81 -154 100 -190 20 -36 55 -103 78 -150 24 -47 46 -87 49 -90 3
-3 28 -50 56 -105 28 -55 75 -145 104 -200 29 -55 79 -152 112 -215 173 -332
166 -320 206 -321 43 -1 49 -2 312 -24 36 -2 99 -7 140 -11 41 -3 93 -7 115
-9 22 -2 76 -6 120 -9 44 -3 107 -8 140 -11 33 -3 92 -8 130 -10 39 -3 93 -7
120 -9 28 -3 86 -7 130 -10 85 -7 176 -14 265 -21 54 -5 139 -11 250 -19 30
-3 88 -8 128 -11 40 -4 97 -9 125 -11 29 -2 86 -6 127 -9 93 -6 1588 -7 1650
-1 25 3 83 8 130 11 89 6 152 12 235 20 54 5 157 13 275 20 86 6 175 13 240
21 25 2 79 7 120 9 41 2 102 6 135 9 33 4 92 8 130 11 70 5 134 10 255 20 36
3 92 8 125 10 86 6 213 16 265 20 25 2 79 7 120 10 41 3 82 8 91 11 9 2 30 30
46 62 17 31 54 102 83 157 29 55 82 156 117 225 36 69 74 139 84 156 10 17 16
34 12 37 -3 4 -2 7 4 7 6 0 18 17 27 37 9 21 31 65 49 98 18 33 70 132 116
220 46 88 98 187 116 220 18 33 57 107 86 165 30 58 57 107 62 108 4 2 7 12 7
22 0 10 4 21 10 25 5 3 29 45 53 93 24 48 62 121 84 162 46 86 137 259 231
440 36 69 70 128 76 132 6 4 8 8 4 8 -5 0 11 35 34 78 23 42 73 138 112 212
38 74 73 137 78 138 4 2 8 9 8 16 0 7 17 44 38 82 20 38 51 96 67 129 17 33
32 62 35 65 3 3 11 17 19 32 13 24 10 34 -42 140 -30 62 -92 190 -137 283 -46
94 -125 258 -177 365 -53 107 -122 251 -155 320 -34 69 -106 217 -161 330 -55
113 -101 207 -102 210 -1 5 -18 40 -219 452 -57 117 -127 262 -156 323 l-52
109 73 221 c41 121 73 223 71 228 -1 4 2 7 6 7 5 0 9 6 9 13 0 6 33 109 72
227 40 118 74 223 76 233 2 9 7 23 12 30 4 6 8 17 9 22 2 12 73 232 85 260 7
17 91 272 94 285 1 3 5 17 9 31 6 20 -6 49 -57 145 -35 65 -86 160 -112 209
-27 50 -61 113 -76 140 -15 28 -38 70 -50 95 -12 25 -32 61 -44 80 l-22 35
-548 0 -547 -1 -382 -381 -381 -381 -1705 1 -1705 0 -380 381 -380 380 -548 1
-548 0 -18 -30z"/>
</g>
</svg>
