<svg width="14" height="14" viewBox="0 0 14 14" fill="none" xmlns="http://www.w3.org/2000/svg">
<path fill-rule="evenodd" clip-rule="evenodd" d="M5.93337 3.48352L7.00174 2.66452L8.06662 3.48352L7.65974 2.15702L8.72637 1.33627H7.40862L7.00174 0.00976562L6.59312 1.33627H5.27449L6.34199 2.15702L5.93337 3.48352Z" fill="white"/>
<path fill-rule="evenodd" clip-rule="evenodd" d="M9.61101 10.4815L11.3033 10.4955L8.76401 6.96842H10.5L6.98689 3.48242L3.52714 6.99642H5.30426L2.63814 10.4553H4.40214L1.76314 13.9693L12.243 13.9544L9.61101 10.4815ZM5.26401 13.1345H4.34789V12.2053H5.26401V13.1345ZM6.13901 9.63455H5.22289V8.7053H6.13901V9.63455ZM7.02714 6.13455H6.09789V5.2053H7.02714V6.13455ZM7.84789 8.70442H8.76401V9.63367H7.84789V8.70442ZM8.72289 13.1345V12.2053H9.63901V13.1345H8.72289Z" fill="white"/>
<path fill-rule="evenodd" clip-rule="evenodd" d="M10.5 6.99609H11.3479V7.85709H10.5V6.99609Z" fill="white"/>
<path fill-rule="evenodd" clip-rule="evenodd" d="M11.375 10.4961H12.2229V11.3571H11.375V10.4961Z" fill="white"/>
<path fill-rule="evenodd" clip-rule="evenodd" d="M1.75 10.4961H2.59788V11.3571H1.75V10.4961Z" fill="white"/>
<path fill-rule="evenodd" clip-rule="evenodd" d="M2.625 6.99609H3.47288V7.85709H2.625V6.99609Z" fill="white"/>
</svg>
